<svg width="111" height="24" viewBox="0 0 111 24" fill="none" xmlns="http://www.w3.org/2000/svg">
<path d="M33.504 6.8H35.584V16.24H41.44V18H33.504V6.8ZM46.652 18.112C45.788 18.112 45.0093 17.9253 44.316 17.552C43.6227 17.1787 43.0787 16.6613 42.684 16C42.3 15.328 42.108 14.5707 42.108 13.728C42.108 12.8853 42.3 12.1333 42.684 11.472C43.0787 10.8107 43.6227 10.2933 44.316 9.92C45.0093 9.54667 45.788 9.36 46.652 9.36C47.5267 9.36 48.3107 9.54667 49.004 9.92C49.6973 10.2933 50.236 10.8107 50.62 11.472C51.0147 12.1333 51.212 12.8853 51.212 13.728C51.212 14.5707 51.0147 15.328 50.62 16C50.236 16.6613 49.6973 17.1787 49.004 17.552C48.3107 17.9253 47.5267 18.112 46.652 18.112ZM46.652 16.4C47.388 16.4 47.996 16.1547 48.476 15.664C48.956 15.1733 49.196 14.528 49.196 13.728C49.196 12.928 48.956 12.2827 48.476 11.792C47.996 11.3013 47.388 11.056 46.652 11.056C45.916 11.056 45.308 11.3013 44.828 11.792C44.3587 12.2827 44.124 12.928 44.124 13.728C44.124 14.528 44.3587 15.1733 44.828 15.664C45.308 16.1547 45.916 16.4 46.652 16.4ZM61.6045 9.456V16.704C61.6045 19.712 60.0685 21.216 56.9965 21.216C56.1752 21.216 55.3965 21.1093 54.6605 20.896C53.9245 20.6933 53.3165 20.3947 52.8365 20L53.7325 18.496C54.1058 18.8053 54.5752 19.0507 55.1405 19.232C55.7165 19.424 56.2978 19.52 56.8845 19.52C57.8232 19.52 58.5112 19.3067 58.9485 18.88C59.3858 18.4533 59.6045 17.8027 59.6045 16.928V16.48C59.2632 16.8533 58.8472 17.136 58.3565 17.328C57.8658 17.52 57.3272 17.616 56.7405 17.616C55.9298 17.616 55.1938 17.4453 54.5325 17.104C53.8818 16.752 53.3645 16.2613 52.9805 15.632C52.6072 15.0027 52.4205 14.2827 52.4205 13.472C52.4205 12.6613 52.6072 11.9467 52.9805 11.328C53.3645 10.6987 53.8818 10.2133 54.5325 9.872C55.1938 9.53067 55.9298 9.36 56.7405 9.36C57.3592 9.36 57.9192 9.46133 58.4205 9.664C58.9325 9.86667 59.3592 10.176 59.7005 10.592V9.456H61.6045ZM57.0445 15.92C57.8018 15.92 58.4205 15.696 58.9005 15.248C59.3912 14.7893 59.6365 14.1973 59.6365 13.472C59.6365 12.7573 59.3912 12.176 58.9005 11.728C58.4205 11.28 57.8018 11.056 57.0445 11.056C56.2765 11.056 55.6472 11.28 55.1565 11.728C54.6765 12.176 54.4365 12.7573 54.4365 13.472C54.4365 14.1973 54.6765 14.7893 55.1565 15.248C55.6472 15.696 56.2765 15.92 57.0445 15.92ZM68.0739 18.112C67.2099 18.112 66.4312 17.9253 65.7379 17.552C65.0445 17.1787 64.5005 16.6613 64.1059 16C63.7219 15.328 63.5299 14.5707 63.5299 13.728C63.5299 12.8853 63.7219 12.1333 64.1059 11.472C64.5005 10.8107 65.0445 10.2933 65.7379 9.92C66.4312 9.54667 67.2099 9.36 68.0739 9.36C68.9485 9.36 69.7325 9.54667 70.4259 9.92C71.1192 10.2933 71.6579 10.8107 72.0419 11.472C72.4365 12.1333 72.6339 12.8853 72.6339 13.728C72.6339 14.5707 72.4365 15.328 72.0419 16C71.6579 16.6613 71.1192 17.1787 70.4259 17.552C69.7325 17.9253 68.9485 18.112 68.0739 18.112ZM68.0739 16.4C68.8099 16.4 69.4179 16.1547 69.8979 15.664C70.3779 15.1733 70.6179 14.528 70.6179 13.728C70.6179 12.928 70.3779 12.2827 69.8979 11.792C69.4179 11.3013 68.8099 11.056 68.0739 11.056C67.3379 11.056 66.7299 11.3013 66.2499 11.792C65.7805 12.2827 65.5459 12.928 65.5459 13.728C65.5459 14.528 65.7805 15.1733 66.2499 15.664C66.7299 16.1547 67.3379 16.4 68.0739 16.4ZM79.6824 17.536C79.4477 17.728 79.1597 17.872 78.8184 17.968C78.4877 18.064 78.1357 18.112 77.7624 18.112C76.8237 18.112 76.0984 17.8667 75.5864 17.376C75.0744 16.8853 74.8184 16.1707 74.8184 15.232V11.12H73.4104V9.52H74.8184V7.568H76.8184V9.52H79.1064V11.12H76.8184V15.184C76.8184 15.6 76.9197 15.92 77.1224 16.144C77.325 16.3573 77.6184 16.464 78.0024 16.464C78.4504 16.464 78.8237 16.3467 79.1224 16.112L79.6824 17.536ZM89.1714 9.456L85.1714 18.688C84.798 19.616 84.3447 20.2667 83.8114 20.64C83.278 21.024 82.6327 21.216 81.8754 21.216C81.4487 21.216 81.0274 21.1467 80.6114 21.008C80.1954 20.8693 79.854 20.6773 79.5874 20.432L80.3874 18.96C80.5794 19.1413 80.8034 19.2853 81.0594 19.392C81.326 19.4987 81.5927 19.552 81.8594 19.552C82.2114 19.552 82.4994 19.4613 82.7234 19.28C82.958 19.0987 83.1714 18.7947 83.3634 18.368L83.5074 18.032L79.7794 9.456H81.8594L84.5474 15.776L87.2514 9.456H89.1714ZM95.1574 9.36C95.9894 9.36 96.7307 9.54133 97.3814 9.904C98.0427 10.2667 98.56 10.7787 98.9334 11.44C99.3067 12.1013 99.4934 12.864 99.4934 13.728C99.4934 14.592 99.3067 15.36 98.9334 16.032C98.56 16.6933 98.0427 17.2053 97.3814 17.568C96.7307 17.9307 95.9894 18.112 95.1574 18.112C94.0054 18.112 93.0934 17.728 92.4214 16.96V21.104H90.4214V9.456H92.3254V10.576C92.656 10.1707 93.0614 9.86667 93.5414 9.664C94.032 9.46133 94.5707 9.36 95.1574 9.36ZM94.9334 16.4C95.6694 16.4 96.272 16.1547 96.7414 15.664C97.2214 15.1733 97.4614 14.528 97.4614 13.728C97.4614 12.928 97.2214 12.2827 96.7414 11.792C96.272 11.3013 95.6694 11.056 94.9334 11.056C94.4534 11.056 94.0214 11.168 93.6374 11.392C93.2534 11.6053 92.9494 11.9147 92.7254 12.32C92.5014 12.7253 92.3894 13.1947 92.3894 13.728C92.3894 14.2613 92.5014 14.7307 92.7254 15.136C92.9494 15.5413 93.2534 15.856 93.6374 16.08C94.0214 16.2933 94.4534 16.4 94.9334 16.4ZM109.422 13.776C109.422 13.9147 109.411 14.112 109.39 14.368H102.686C102.803 14.9973 103.107 15.4987 103.598 15.872C104.099 16.2347 104.718 16.416 105.454 16.416C106.393 16.416 107.166 16.1067 107.774 15.488L108.846 16.72C108.462 17.1787 107.977 17.5253 107.39 17.76C106.803 17.9947 106.142 18.112 105.406 18.112C104.467 18.112 103.641 17.9253 102.926 17.552C102.211 17.1787 101.657 16.6613 101.262 16C100.878 15.328 100.686 14.5707 100.686 13.728C100.686 12.896 100.873 12.1493 101.246 11.488C101.63 10.816 102.158 10.2933 102.83 9.92C103.502 9.54667 104.259 9.36 105.102 9.36C105.934 9.36 106.675 9.54667 107.326 9.92C107.987 10.2827 108.499 10.8 108.862 11.472C109.235 12.1333 109.422 12.9013 109.422 13.776ZM105.102 10.96C104.462 10.96 103.918 11.152 103.47 11.536C103.033 11.9093 102.766 12.4107 102.67 13.04H107.518C107.433 12.4213 107.171 11.92 106.734 11.536C106.297 11.152 105.753 10.96 105.102 10.96Z" fill="#373B52"/>
<path d="M12 24C18.6274 24 24 18.6274 24 12C24 5.37258 18.6274 0 12 0C5.37258 0 0 5.37258 0 12C0 18.6274 5.37258 24 12 24Z" fill="#373B52"/>
</svg>
